<?xml version="1.0" encoding="UTF-8"?>
<svg id="Layer_1" data-name="Layer 1" xmlns="http://www.w3.org/2000/svg" viewBox="0 0 1188.95 318.16">
  <defs>
    <style>
      .cls-1 {
        fill: #66fcf1;
      }
    </style>
  </defs>
  <g>
    <path d="M.23,40.42h62.11c16.8,0,29.71,1.32,38.75,3.95,9.03,2.64,15.82,6.45,20.36,11.43,4.54,4.98,7.62,11.01,9.23,18.09,1.61,7.08,2.42,18.04,2.42,32.88v20.66c0,15.14-1.56,26.17-4.69,33.1-3.13,6.93-8.86,12.26-17.21,15.97-8.35,3.71-19.26,5.57-32.74,5.57h-16.55v95.51H.23V40.42ZM61.9,81v60.35c1.76.1,3.27.15,4.54.15,5.66,0,9.6-1.39,11.79-4.17,2.2-2.78,3.3-8.57,3.3-17.36v-19.48c0-8.1-1.27-13.38-3.81-15.82-2.54-2.44-7.81-3.66-15.82-3.66"/>
    <path d="M150.82,40.42h43.65c29.1,0,48.8,1.12,59.11,3.37,10.3,2.25,18.7,7.98,25.2,17.21,6.49,9.23,9.74,23.95,9.74,44.17,0,18.46-2.3,30.86-6.88,37.21-4.59,6.35-13.62,10.16-27.1,11.43,12.21,3.03,20.41,7.08,24.61,12.16,4.2,5.08,6.81,9.74,7.84,13.99,1.03,4.25,1.54,15.94,1.54,35.08v62.55h-57.27v-78.81c0-12.69-1-20.55-3-23.58-2-3.03-7.25-4.54-15.75-4.54v106.93h-61.67V40.42ZM212.49,81v52.73c6.93,0,11.79-.95,14.57-2.86,2.78-1.9,4.18-8.08,4.18-18.53v-13.04c0-7.52-1.34-12.45-4.03-14.79-2.69-2.34-7.6-3.52-14.72-3.52"/>
    <rect x="312.39" y="40.42" width="61.67" height="237.16"/>
    <path d="M589.1,40.42v237.16h-53.91l-.07-160.11-21.46,160.11h-38.23l-22.63-156.45-.07,156.45h-53.91V40.42h79.8c2.37,14.26,4.81,31.06,7.32,50.42l8.76,60.32,14.17-110.74h80.24Z"/>
    <rect x="613.85" y="40.42" width="61.67" height="237.16"/>
    <path d="M1071.62,40.42l-31.39,237.16h-93.68l-35.63-237.16h65.04c7.56,65.33,12.95,120.6,16.19,165.82,3.19-45.7,6.57-86.27,10.15-121.72l4.28-44.1h65.04Z"/>
    <polygon points="1082.02 40.42 1184.85 40.42 1184.85 87.89 1143.69 87.89 1143.69 132.86 1182.21 132.86 1182.21 177.97 1143.69 177.97 1143.69 230.12 1188.95 230.12 1188.95 277.58 1082.02 277.58 1082.02 40.42"/>
  </g>
  <g>
    <path class="cls-1" d="M881.45,40.08h-173.71c-10.07,0-18.24,8.17-18.24,18.24v10.92c0,10,8.02,18.42,18.02,18.3,5.12-.06,9.76,1.99,13.11,5.34,3.3,3.3,5.34,7.86,5.34,12.9v153.22c0,10.07,8.16,18.23,18.23,18.23h137.26c10.07,0,18.23-8.16,18.23-18.23V58.32c0-10.07-8.17-18.24-18.24-18.24M825.5,221.57c-.73,5.76-5.38,10.4-11.14,11.13-8.45,1.06-15.55-6.03-14.5-14.49.71-5.76,5.35-10.43,11.12-11.17,8.47-1.08,15.61,6.05,14.52,14.53M838.02,226.77c-.92.89-1.88,1.73-2.89,2.52-.43.33-.91.48-1.38.48-1.2,0-2.34-.96-2.34-2.34v-7.73c0-10.32-8.14-19.07-18.46-19.21-5.28-.08-10.07,2.04-13.52,5.48-3.38,3.39-5.48,8.07-5.48,13.25v8.21c0,1.38-1.14,2.34-2.35,2.34-.47,0-.95-.15-1.38-.48-.41-.32-.8-.64-1.19-.97-.1-.08-.19-.16-.29-.25-.38-.33-.74-.66-1.1-1-.11-.09-.21-.19-.31-.29-6.9-6.64-11.18-15.96-11.18-26.3s4.28-19.65,11.18-26.3c.1-.1.2-.2.31-.29,1.06-.99,2.16-1.91,3.32-2.78,1.9-1.41,2.99-3.65,2.99-6.02v-58.3c0-10.35,8.18-19.14,18.53-19.25,5.25-.05,10.01,2.06,13.44,5.49,3.39,3.39,5.49,8.07,5.49,13.24v58.82c0,2.41,1.15,4.65,3.08,6.1,1.24.93,2.42,1.93,3.53,2.99,6.9,6.65,11.19,15.97,11.19,26.3s-4.29,19.65-11.19,26.29"/>
    <path class="cls-1" d="M884.69,30.07h-38.28c-8.28,0-15-6.72-15-15v-.07c0-8.29,6.72-15,15-15h38.28c8.28,0,15,6.71,15,15v.07c0,8.28-6.72,15-15,15"/>
  </g>
</svg>